<?xml version="1.0" encoding="utf-8"?>
<!-- Generator: Adobe Illustrator 15.0.2, SVG Export Plug-In . SVG Version: 6.00 Build 0)  -->
<!DOCTYPE svg PUBLIC "-//W3C//DTD SVG 1.1//EN" "http://www.w3.org/Graphics/SVG/1.1/DTD/svg11.dtd">
<svg version="1.1" id="Слой_1" xmlns="http://www.w3.org/2000/svg" xmlns:xlink="http://www.w3.org/1999/xlink" x="0px" y="0px"
	 width="433px" height="68px" viewBox="0 0 433 68" enable-background="new 0 0 433 68" xml:space="preserve">
<g>
	<path fill="#BED747" d="M15.297,24.025c0.364,0.045,0.421,0.199,0.171,0.461c-0.183,0.194-0.393,0.348-0.632,0.461
		c-0.9,0.422-1.749,0.576-2.546,0.463c-1.151-0.147-2.575-0.068-4.272,0.238c-1.071,4.012-1.954,7.69-2.649,11.04
		C6.03,36.586,7.3,36.467,9.18,36.33c0.296-0.023,0.552,0,0.769,0.068c0.319,0.102,0.347,0.273,0.085,0.512
		c-0.559,0.502-1.373,0.787-2.444,0.855c-1.766,0.137-2.592,0.199-2.478,0.188c-0.604,2.975-1.088,5.828-1.453,8.563
		c-0.057,0.398-0.615,0.74-1.675,1.025c-0.285,0.078-0.638,0.137-1.06,0.17c-0.638,0.057-0.945-0.018-0.923-0.223
		c0.843-6.221,2.324-13.325,4.443-21.312c-0.365-0.045-0.49-0.17-0.376-0.375c0.103-0.205,0.313-0.388,0.632-0.547
		c0.091-0.343,0.131-0.496,0.12-0.462c0.045-0.159,0.296-0.348,0.752-0.563c0.421-0.194,0.883-0.336,1.384-0.428
		c1.082-0.192,1.566-0.079,1.453,0.342c0,0.034-0.012,0.08-0.034,0.138c-0.012,0.067-0.023,0.113-0.034,0.137
		C11.144,23.916,13.462,23.785,15.297,24.025z"/>
	<path fill="#BED747" d="M18.971,29.92c1.583,0.866,2.438,2.461,2.563,4.785c0.091,1.721-0.205,3.596-0.889,5.623
		c-0.718,2.188-1.681,3.885-2.888,5.094c-0.741,0.74-1.641,1.309-2.7,1.709c-1.105,0.41-2.159,0.553-3.162,0.426
		c-1.06-0.137-1.663-0.979-1.812-2.527c-0.137-1.355,0.012-3.076,0.444-5.162c0.399-1.959,0.929-3.736,1.589-5.332
		c0.684-1.663,1.424-2.774,2.222-3.333c0.319-0.217,0.729-0.388,1.23-0.514c0.262-0.228,0.615-0.415,1.06-0.563
		C17.746,29.74,18.527,29.67,18.971,29.92z M16.459,42.498c1.002-2.313,1.458-4.512,1.367-6.596
		c-0.068-1.676-0.467-2.963-1.196-3.864c-0.205,0.354-0.405,0.742-0.598,1.162c-0.513,1.117-0.963,2.377-1.35,3.776
		c-0.935,3.34-1.225,5.887-0.872,7.641c0.114,0.547,0.279,0.957,0.496,1.23c0.216-0.217,0.41-0.428,0.581-0.633
		C15.49,44.418,16.015,43.514,16.459,42.498z"/>
	<path fill="#BED747" d="M32.13,31.356c0.729,0.435,1.014,1.214,0.854,2.341c-0.16,1.071-0.524,2.149-1.094,3.231
		c-0.57,1.082-1.117,1.852-1.641,2.307c-0.559,0.479-1.379,0.77-2.461,0.871c-0.285,0.023-0.542,0-0.769-0.066
		c-0.331-0.104-0.359-0.273-0.085-0.514c0.398-0.342,0.826-0.951,1.282-1.828c0.558-1.049,0.911-1.988,1.06-2.82
		c0.103-0.535,0.12-0.991,0.051-1.367c-1.618,1.914-2.854,4.148-3.708,6.699c-0.524,3.008-0.906,4.951-1.145,5.828
		c-0.114,0.387-0.758,0.693-1.931,0.922c-1.162,0.229-1.731,0.195-1.709-0.102l0.017-0.172c0.183-2.143,0.576-4.125,1.179-5.947
		c0.16-0.91,0.319-1.697,0.479-2.357c0.934-3.805,1.354-6.124,1.265-6.956c-0.046-0.444,0.541-0.809,1.76-1.094
		c0.49-0.113,0.917-0.165,1.282-0.153c0.387,0.022,0.592,0.113,0.615,0.272c0.068,0.604,0.057,1.26-0.034,1.966l0.017-0.019
		l0.017-0.017c0.684-0.522,1.436-0.884,2.256-1.077c1.116-0.262,1.675-0.393,1.675-0.393S31.618,31.06,32.13,31.356z"/>
	<path fill="#BED747" d="M51.818,32.176c-0.057,1.459-0.393,2.945-1.008,4.46c-1.025,4.229-1.606,7.377-1.743,9.451
		c-0.034,0.49-0.655,0.848-1.863,1.076c-0.467,0.092-0.877,0.131-1.23,0.119c-0.376-0.021-0.559-0.092-0.547-0.205
		c0.057-0.842,0.154-1.73,0.291-2.666c-0.456,0.479-0.906,0.873-1.35,1.18c-0.786,0.547-1.646,0.889-2.581,1.025
		c-1.003,0.137-1.692,0.08-2.068-0.17c-0.809-0.525-1.236-1.613-1.282-3.266c-0.103-2.826,0.632-5.697,2.205-8.613
		c0.979-1.788,2.654-3.155,5.024-4.102c1.72-0.694,3.064-0.831,4.033-0.41c0.615,0.273,0.94,0.912,0.974,1.914
		C51.436,31.88,51.818,31.949,51.818,32.176z M44.025,42.566c1.526-2.061,2.598-3.834,3.213-5.314
		c0.364-1.504,0.638-2.705,0.82-3.605c-0.707,0.058-1.054-0.006-1.042-0.188c0.057-1.036-0.085-1.697-0.427-1.981l-0.017,0.017
		c-0.125,0.08-0.222,0.144-0.291,0.188c-0.046,0.033-0.08,0.058-0.103,0.067c-0.012,0.012-0.023,0.022-0.034,0.033
		c-0.399,0.31-0.735,0.6-1.008,0.873c-0.285,0.284-0.536,0.614-0.752,0.99c-0.331,0.604-0.621,1.202-0.872,1.795
		c-0.672,1.629-1.105,3.121-1.299,4.477c-0.251,1.732-0.194,3.111,0.171,4.137c0.057,0.137,0.12,0.279,0.188,0.428
		c0.205-0.238,0.308-0.357,0.308-0.357S43.261,43.604,44.025,42.566z"/>
	<path fill="#FCAF17" d="M80.478,24.992c0.352,1.191,0.439,2.91,0.264,5.156c-0.117,1.445-0.342,3.232-0.674,5.362
		c-0.391,2.559-0.811,4.541-1.26,5.947c-1.446,4.629-2.178,7.645-2.197,9.053c-0.02,0.801-1.065,1.416-3.135,1.846
		c-0.82,0.156-1.534,0.225-2.139,0.205c-0.645-0.039-0.967-0.166-0.967-0.381c0.019-1.816,0.488-4.18,1.406-7.09
		c1.094-3.439,1.729-5.771,1.904-7.002c0.664-4.258,0.967-7.256,0.908-8.995c-0.059-1.191-0.166-2.031-0.322-2.52
		c-1.133,1.387-2.393,3.643-3.779,6.768c-1.25,2.774-2.618,6.329-4.102,10.665c-1.484,4.355-2.325,6.758-2.52,7.207
		c-0.274,0.586-1.387,1.094-3.34,1.523c-1.973,0.43-2.93,0.381-2.871-0.146c1.309-11.113,4.199-25.489,8.672-43.125
		c0.059-0.254,0.479-0.566,1.26-0.938c0.722-0.332,1.523-0.576,2.402-0.732c1.835-0.332,2.666-0.146,2.49,0.557
		c-1.973,7.754-3.545,14.336-4.717,19.746c0.977-1.348,2.021-2.402,3.135-3.164c1.504-1.016,3.232-1.66,5.186-1.934
		C78.524,22.648,79.989,23.312,80.478,24.992z"/>
	<path fill="#FCAF17" d="M99.52,28.009c0.195,2.305-0.274,5.117-1.406,8.438c-0.137,0.391-0.801,0.811-1.992,1.26
		c-0.957,0.332-1.768,0.508-2.432,0.527c-0.43,0.02-1.631,0.02-3.604,0c-1.523,0-2.725,0.049-3.604,0.146
		c-0.312,1.561-0.527,3.311-0.645,5.244c-0.098,2.146-0.02,3.711,0.234,4.688c0.234,0.898,0.537,1.514,0.908,1.846
		c0.429-0.371,0.781-0.723,1.055-1.055c1.211-1.523,1.953-3.086,2.227-4.688c0.039-0.254,0.469-0.576,1.289-0.967
		c0.703-0.332,1.494-0.576,2.373-0.732c1.777-0.313,2.607-0.117,2.49,0.586c-0.43,2.539-1.797,4.756-4.102,6.65
		c-1.329,1.094-2.706,1.875-4.131,2.344c-2.383,0.801-4.238,1.035-5.566,0.703c-2.031-0.508-3.047-2.383-3.047-5.625
		c-0.019-1.992,0.157-4.27,0.527-6.826c0.684-4.434,1.68-7.793,2.988-10.079c0.839-1.855,1.787-3.301,2.842-4.336
		c1.542-1.523,3.613-2.52,6.211-2.988c2.793-0.508,4.717-0.234,5.771,0.82C98.866,24.904,99.403,26.251,99.52,28.009z
		 M85.868,51.008c-0.02,0.02-0.049,0.029-0.088,0.029L85.868,51.008z M86.864,36.301c1.484-0.215,3.359-0.352,5.625-0.41
		c0.722-2.696,0.977-4.834,0.762-6.417c-0.176-1.816-0.655-3.018-1.436-3.604c-0.117-0.078-0.215-0.138-0.293-0.176
		c-0.117,0.098-0.146,0.127-0.088,0.088c-0.234,0.233-0.43,0.469-0.586,0.703c-0.469,0.663-0.889,1.356-1.26,2.079
		c-0.762,1.582-1.426,3.105-1.992,4.57C87.343,34.132,87.099,35.188,86.864,36.301z M92.284,25.021c0.019,0,0.029-0.01,0.029-0.029
		C92.313,25.011,92.303,25.021,92.284,25.021z"/>
	<path fill="#FCAF17" d="M120.087,26.896c-0.099,2.5-0.675,5.049-1.729,7.647c-1.758,7.246-2.754,12.645-2.987,16.201
		c-0.06,0.84-1.125,1.455-3.193,1.846c-0.801,0.156-1.504,0.225-2.109,0.205c-0.645-0.039-0.957-0.156-0.938-0.354
		c0.098-1.443,0.264-2.969,0.498-4.568c-0.781,0.818-1.553,1.494-2.314,2.02c-1.348,0.939-2.822,1.523-4.424,1.758
		c-1.719,0.234-2.9,0.139-3.545-0.293c-1.387-0.896-2.119-2.764-2.197-5.596c-0.176-4.844,1.084-9.766,3.779-14.766
		c1.68-3.065,4.551-5.409,8.613-7.03c2.948-1.191,5.254-1.427,6.913-0.703c1.056,0.469,1.611,1.562,1.671,3.28
		C119.432,26.388,120.087,26.505,120.087,26.896z M106.728,44.709c2.617-3.535,4.453-6.572,5.508-9.111
		c0.625-2.579,1.094-4.639,1.406-6.182c-1.211,0.098-1.807-0.01-1.787-0.322c0.098-1.777-0.146-2.91-0.732-3.398l-0.028,0.029
		c-0.216,0.137-0.382,0.244-0.498,0.322c-0.078,0.059-0.138,0.098-0.177,0.117c-0.02,0.02-0.039,0.039-0.059,0.059
		c-0.684,0.527-1.26,1.025-1.729,1.494c-0.488,0.488-0.918,1.055-1.289,1.699c-0.567,1.035-1.065,2.061-1.494,3.076
		c-1.152,2.793-1.895,5.352-2.227,7.676c-0.431,2.969-0.334,5.332,0.293,7.09c0.098,0.234,0.205,0.479,0.322,0.732
		c0.352-0.41,0.526-0.615,0.526-0.615S105.419,46.486,106.728,44.709z"/>
	<path fill="#FCAF17" d="M141.972,8.673c1.875-0.332,2.705-0.137,2.49,0.586c-1.427,4.707-4.317,18.525-8.672,41.456
		c-0.06,0.254-0.488,0.576-1.289,0.967c-0.724,0.332-1.515,0.576-2.373,0.732c-0.488,0.078-0.898,0.127-1.23,0.145
		c-3.281,1.406-6.063,1.516-8.35,0.322c-2.013-1.035-3.33-2.754-3.955-5.156c-0.898-3.438-0.597-7.666,0.908-12.686
		c1.62-5.41,4.043-9.033,7.266-10.869c1.835-1.056,3.779-1.689,5.83-1.904c0.977-0.098,1.835-0.021,2.578,0.233
		c0.977-4.413,2.021-8.456,3.135-12.129c0.078-0.272,0.498-0.596,1.26-0.967C140.291,9.074,141.093,8.829,141.972,8.673z
		 M124.774,45.881c0.566,2.109,1.563,3.613,2.988,4.512c0.253,0.176,0.508,0.322,0.762,0.439l0.117-0.146
		c0.312-0.41,0.781-0.752,1.406-1.025c0.312-1.66,0.868-4.775,1.67-9.346c0.703-3.945,1.27-7.071,1.698-9.375
		c-0.684-0.02-1.035-0.166-1.055-0.439c-0.254-2.559-0.879-4.276-1.875-5.155c-0.059-0.06-0.106-0.099-0.146-0.117
		c-0.215,0.177-0.4,0.353-0.558,0.527c-1.953,2.108-3.457,5.282-4.512,9.521c-1.036,4.297-1.553,6.445-1.553,6.445
		S124.071,43.107,124.774,45.881z"/>
	<path fill="#FCAF17" d="M155.214,11.398c-0.117,0.137-0.195,0.234-0.234,0.293c-1.523,2.188-2.979,5.547-4.365,10.078
		c1.465-0.02,4.814,0.039,10.049,0.176c0.586,0.021,0.928,0.166,1.025,0.439c0.078,0.254-0.127,0.547-0.615,0.879
		c-1.405,0.938-2.86,1.387-4.364,1.348c-0.685-0.02-1.827-0.068-3.429-0.146c-1.465-0.06-2.598-0.099-3.397-0.117
		c-0.86,3.185-1.603,6.688-2.228,10.519c-1.27,7.754-1.855,13.096-1.758,16.023c0.02,0.82-1.006,1.477-3.076,1.963
		c-0.801,0.195-1.514,0.293-2.139,0.293c-0.645-0.02-0.967-0.137-0.967-0.352c-0.099-3.379,0.596-9.424,2.08-18.135
		c0.526-3.027,1.317-6.426,2.373-10.195c-1.446,0.116-2.793,0.312-4.043,0.586c-0.488,0.116-0.996,0.176-1.523,0.176
		c-0.859,0-1.191-0.215-0.996-0.646c0.371-0.762,1.572-1.366,3.604-1.815c1.172-0.254,2.383-0.459,3.633-0.615
		c0.272-0.897,0.537-1.768,0.791-2.606c1.328-4.297,3.35-7.471,6.063-9.521c0.996-0.762,2.197-1.348,3.604-1.758
		c1.776-0.508,3.095-0.625,3.955-0.352c1.465,0.469,2.577,1.885,3.34,4.249c0.215,0.664-0.713,1.317-2.783,1.963
		c-2.051,0.625-3.184,0.596-3.397-0.088C156.024,12.843,155.625,11.964,155.214,11.398z"/>
	<path fill="#FCAF17" d="M168.808,25.343c0.215-0.605,1.318-1.123,3.311-1.553c1.974-0.43,2.939-0.381,2.9,0.146
		c-0.371,5.392-2.139,14.728-5.303,28.009c-0.06,0.254-0.488,0.564-1.289,0.938c-0.724,0.352-1.515,0.605-2.373,0.762
		c-1.836,0.332-2.676,0.137-2.521-0.586c1.66-6.895,2.598-10.85,2.813-11.865c-0.254,0.449-0.479,0.84-0.674,1.172
		c-1.953,3.34-3.79,5.781-5.509,7.324c-2.559,2.266-5.36,3.223-8.407,2.871c-0.253-0.02-0.439-0.146-0.558-0.381
		c-0.293-9.902,1.963-18.926,6.769-27.071c0.448-0.762,1.68-1.318,3.69-1.67c0.47-0.098,0.986-0.137,1.554-0.117
		c0.879,0.039,1.19,0.264,0.938,0.674c-4.004,6.797-6.211,14.346-6.621,22.647c1.016-1.484,2.051-3.213,3.105-5.186
		C165.243,33,167.968,27.628,168.808,25.343z"/>
	<path fill="#FCAF17" d="M181.933,9.992c0.273-0.742,1.504-1.309,3.691-1.699c1.934-0.352,2.764-0.156,2.489,0.586
		c0.177-0.488-2.999,13.721-9.521,42.626c-0.06,0.254-0.488,0.566-1.289,0.939c-0.723,0.33-1.514,0.574-2.373,0.73
		c-1.835,0.332-2.676,0.146-2.521-0.557c0.099-0.469,1.446-7.637,4.043-21.504C178.075,22.501,179.901,15.46,181.933,9.992z"/>
	<path fill="#BED747" d="M200.98,29.92c1.584,0.866,2.438,2.461,2.564,4.785c0.09,1.721-0.205,3.596-0.89,5.623
		c-0.719,2.188-1.682,3.885-2.889,5.094c-0.74,0.74-1.642,1.309-2.7,1.709c-1.104,0.41-2.159,0.553-3.162,0.426
		c-1.06-0.137-1.663-0.979-1.812-2.527c-0.138-1.355,0.012-3.076,0.443-5.162c0.399-1.959,0.93-3.736,1.589-5.332
		c0.685-1.663,1.425-2.774,2.223-3.333c0.318-0.217,0.729-0.388,1.229-0.514c0.263-0.228,0.615-0.415,1.061-0.563
		C199.755,29.74,200.537,29.67,200.98,29.92z M198.468,42.498c1.002-2.313,1.458-4.512,1.367-6.596
		c-0.068-1.676-0.468-2.963-1.196-3.864c-0.205,0.354-0.405,0.742-0.599,1.162c-0.513,1.117-0.963,2.377-1.351,3.776
		c-0.935,3.34-1.225,5.887-0.872,7.641c0.114,0.547,0.279,0.957,0.496,1.23c0.216-0.217,0.41-0.428,0.581-0.633
		C197.5,44.418,198.024,43.514,198.468,42.498z"/>
	<path fill="#BED747" d="M212.978,23.136c-0.068,0.079-0.115,0.137-0.137,0.17c-0.89,1.275-1.738,3.236-2.547,5.879
		c0.854-0.011,2.809,0.023,5.86,0.104c0.344,0.012,0.541,0.098,0.6,0.257c0.047,0.147-0.074,0.319-0.357,0.513
		c-0.821,0.547-1.67,0.811-2.547,0.786c-0.398-0.011-1.065-0.04-2-0.086c-0.854-0.033-1.516-0.058-1.982-0.068
		c-0.501,1.857-0.934,3.904-1.299,6.136c-0.74,4.523-1.082,7.641-1.024,9.35c0.012,0.479-0.587,0.859-1.794,1.145
		c-0.469,0.113-0.885,0.172-1.247,0.172c-0.378-0.012-0.564-0.08-0.564-0.205c-0.057-1.973,0.348-5.498,1.213-10.58
		c0.31-1.766,0.771-3.748,1.385-5.947c-0.844,0.067-1.629,0.183-2.357,0.342c-0.284,0.068-0.581,0.104-0.89,0.104
		c-0.501,0-0.693-0.127-0.58-0.377c0.217-0.443,0.918-0.797,2.102-1.06c0.684-0.147,1.391-0.268,2.119-0.358
		c0.16-0.523,0.313-1.031,0.462-1.521c0.774-2.506,1.954-4.357,3.538-5.554c0.58-0.444,1.281-0.786,2.102-1.025
		c1.037-0.296,1.807-0.364,2.308-0.205c0.855,0.273,1.503,1.101,1.949,2.479c0.125,0.388-0.416,0.77-1.625,1.146
		c-1.195,0.365-1.856,0.348-1.981-0.052C213.451,23.979,213.216,23.466,212.978,23.136z"/>
	<path fill="#E884B6" d="M238.449,11.164c0.801,0,1.201,0.127,1.201,0.381c0,4.941-0.283,12.334-0.85,22.178
		c-0.586,9.864-0.879,17.256-0.879,22.178c0,0.82-1.045,1.445-3.137,1.875c-0.818,0.176-1.543,0.244-2.168,0.205
		c-0.645-0.02-0.967-0.146-0.967-0.381c0-4.199,0.156-9.287,0.469-15.264c-1.016-0.176-2.527-0.156-4.541,0.059
		c-0.564,0.078-1.27,0.088-2.107,0.029c-0.781,2.402-1.553,4.971-2.314,7.705c-0.078,0.271-0.508,0.586-1.289,0.938
		c-0.723,0.352-1.514,0.605-2.373,0.762c-1.875,0.332-2.715,0.137-2.52-0.586c0.918-3.281,1.836-6.318,2.754-9.111
		c-0.176,0-0.352,0-0.527,0c-0.137,0-0.41,0.029-0.82,0.088c-1.348,0.762-2.764,1.123-4.248,1.084
		c-0.586-0.02-0.918-0.166-0.996-0.438c-0.078-0.293,0.137-0.598,0.645-0.908c1.855-1.133,4.103-1.855,6.738-2.168
		c1.074-3.066,2.207-5.967,3.398-8.702c0.508-1.172,1.211-2.783,2.109-4.834c1.035-2.305,1.748-3.916,2.139-4.834
		c2.227-5.059,3.623-7.949,4.189-8.672c0.605-0.801,1.826-1.367,3.662-1.699C237.111,10.851,237.922,10.89,238.449,11.164z
		 M230.686,39.904c0.566-0.059,1.094-0.107,1.582-0.146c0.527-9.277,0.82-14.854,0.879-16.729c-1.563,3.517-2.578,5.83-3.047,6.943
		c-1.309,3.027-2.549,6.27-3.721,9.727C228.957,39.855,230.393,39.924,230.686,39.904z"/>
	<path fill="#E884B6" d="M263.352,25.402c0.762,1.896,1.055,4.396,0.879,7.5c-0.137,2.188-0.498,4.932-1.084,8.233
		c-1.621,9.043-2.871,15.146-3.75,18.311c-0.059,0.254-0.488,0.566-1.289,0.938c-0.723,0.332-1.514,0.576-2.373,0.732
		c-1.875,0.352-2.715,0.166-2.52-0.557c0.879-3.164,2.107-9.16,3.689-17.988c1.133-6.328,1.396-10.831,0.791-13.506
		c-0.43,0.41-0.818,0.83-1.172,1.26c-1.387,1.681-2.783,3.926-4.188,6.739c-1.35,2.695-3.252,7.412-5.715,14.15
		c-0.215,0.625-1.316,1.143-3.311,1.553c-1.973,0.43-2.939,0.381-2.9-0.146c0.256-3.477,1.074-8.076,2.461-13.799
		c1.604-6.641,2.59-11.202,2.961-13.682c0.098-0.703,1.055-1.299,2.869-1.787c0.488-0.137,1.096-0.234,1.816-0.293
		c1.094-0.098,1.621,0.029,1.582,0.381c-0.332,2.168-0.83,4.727-1.494,7.676c0.488-0.604,0.996-1.162,1.523-1.67
		c2.344-2.246,5.234-3.69,8.672-4.336C262.307,24.816,263.156,24.914,263.352,25.402z"/>
	<path fill="#E884B6" d="M285.471,22.355c0.41-0.098,0.869-0.166,1.377-0.205c0.801-0.059,1.191,0.059,1.172,0.353
		c0,0.038-0.01,0.088-0.029,0.146c0,0.059,0,0.107,0,0.146c-0.02,0-0.02,0,0,0c-0.254,2.246-1.006,5.254-2.256,9.022
		c-0.234,1.621-0.752,4.591-1.553,8.906c-0.547,4.375-1.074,7.734-1.582,10.078c-0.918,4.104-1.719,6.924-2.402,8.467
		c-1.016,2.285-2.178,4.023-3.486,5.215c-2.52,2.307-5.361,3.479-8.525,3.518c-1.309,0-2.51-0.254-3.604-0.762
		c-1.289-0.605-2.109-1.477-2.461-2.607c-0.371-1.152-0.098-3.389,0.82-6.709c0.215-0.742,1.406-1.367,3.574-1.875
		c1.895-0.449,2.734-0.303,2.52,0.439c-0.879,3.184-1.143,5.232-0.791,6.15c0.391,0.996,1.123,1.73,2.197,2.197
		c0.293,0.137,0.566,0.244,0.82,0.322c0.176-0.195,0.303-0.332,0.381-0.41c0.566-0.645,1.064-1.357,1.494-2.139
		c0.84-1.484,1.561-3.32,2.168-5.508c0.508-1.855,0.986-3.906,1.436-6.152c-2.07,1.27-4.043,2.012-5.918,2.227
		c-2.285,0.273-4.111-0.311-5.479-1.758c-1.406-1.484-2.041-3.584-1.904-6.299c0.117-5.957,2.461-11.396,7.031-16.318
		c2.5-2.871,5.352-4.688,8.555-5.449c1.641-0.41,2.939-0.459,3.896-0.146c0.586-0.313,0.879-0.47,0.879-0.47
		S284.357,22.609,285.471,22.355z M275.656,47.844c0.859-1.055,1.65-2.285,2.373-3.691c1.094-7.793,1.973-13.086,2.637-15.879
		c-0.762,0.039-1.221-0.107-1.377-0.439c-0.332-0.762-0.664-1.288-0.996-1.581c-0.098-0.078-0.195-0.146-0.293-0.205
		c-2.617,2.323-4.678,5.176-6.182,8.554c-1.621,3.164-2.373,6.064-2.256,8.701c-0.039,1.563,0.146,2.871,0.557,3.926
		c0.684,1.797,1.67,2.854,2.959,3.164c0.117-0.098,0.205-0.166,0.264-0.205c0.762-0.586,1.143-0.879,1.143-0.879
		S274.875,48.82,275.656,47.844z"/>
	<path fill="#E884B6" d="M305.803,28.009c0.195,2.305-0.273,5.117-1.406,8.438c-0.137,0.391-0.801,0.811-1.992,1.26
		c-0.957,0.332-1.768,0.508-2.432,0.527c-0.43,0.02-1.631,0.02-3.605,0c-1.521,0-2.725,0.049-3.604,0.146
		c-0.313,1.561-0.527,3.311-0.645,5.244c-0.098,2.146-0.02,3.711,0.234,4.688c0.234,0.898,0.537,1.514,0.908,1.846
		c0.43-0.371,0.781-0.723,1.055-1.055c1.211-1.523,1.953-3.086,2.227-4.688c0.039-0.254,0.469-0.576,1.289-0.967
		c0.703-0.332,1.494-0.576,2.373-0.732c1.777-0.313,2.607-0.117,2.49,0.586c-0.43,2.539-1.797,4.756-4.102,6.65
		c-1.328,1.094-2.705,1.875-4.131,2.344c-2.385,0.801-4.238,1.035-5.566,0.703c-2.031-0.508-3.047-2.383-3.047-5.625
		c-0.021-1.992,0.156-4.27,0.527-6.826c0.684-4.434,1.68-7.793,2.986-10.079c0.84-1.855,1.787-3.301,2.842-4.336
		c1.545-1.523,3.613-2.52,6.213-2.988c2.793-0.508,4.717-0.234,5.77,0.82C305.148,24.904,305.686,26.251,305.803,28.009z
		 M292.15,51.008c-0.02,0.02-0.049,0.029-0.088,0.029L292.15,51.008z M293.146,36.301c1.484-0.215,3.359-0.352,5.625-0.41
		c0.723-2.696,0.977-4.834,0.762-6.417c-0.176-1.816-0.654-3.018-1.436-3.604c-0.117-0.078-0.215-0.138-0.293-0.176
		c-0.117,0.098-0.146,0.127-0.088,0.088c-0.234,0.233-0.432,0.469-0.586,0.703c-0.471,0.663-0.891,1.356-1.262,2.079
		c-0.762,1.582-1.426,3.105-1.99,4.57C293.625,34.132,293.381,35.188,293.146,36.301z M298.566,25.021
		c0.02,0,0.029-0.01,0.029-0.029C298.596,25.011,298.586,25.021,298.566,25.021z"/>
	<path fill="#E884B6" d="M312.893,9.992c0.273-0.742,1.504-1.309,3.691-1.699c1.934-0.352,2.764-0.156,2.488,0.586
		c0.178-0.488-2.998,13.721-9.52,42.626c-0.061,0.254-0.488,0.566-1.289,0.939c-0.723,0.33-1.514,0.574-2.373,0.73
		c-1.836,0.332-2.676,0.146-2.521-0.557c0.1-0.469,1.445-7.637,4.045-21.504C309.035,22.501,310.861,15.46,312.893,9.992z"/>
	<path fill="#E884B6" d="M351.213,11.691c1.814-0.332,2.645-0.146,2.488,0.557c-0.564,2.402-1.531,6.162-2.898,11.279
		c-1.311,4.922-2.268,8.691-2.871,11.309c0.645,0,1.211,0.01,1.699,0.029c0.586,0.02,0.918,0.166,0.996,0.439
		c0.076,0.273-0.139,0.566-0.646,0.879c-0.742,0.469-1.592,0.801-2.549,0.996c-1.172,5.488-1.875,10.469-2.109,14.941
		c-0.039,0.818-1.104,1.436-3.191,1.846c-0.803,0.156-1.506,0.215-2.109,0.176c-0.646-0.02-0.967-0.137-0.967-0.352
		c0.254-4.824,1.045-10.254,2.373-16.289c-1.074,0.098-2.148,0.234-3.225,0.41c-0.996,0.176-1.787,0.332-2.373,0.469
		c-0.957,4.922-1.609,9.434-1.963,13.535c-0.059,0.82-1.123,1.426-3.191,1.814c-0.803,0.156-1.504,0.217-2.109,0.178
		c-0.645-0.021-0.957-0.127-0.938-0.322c0.352-4.082,0.984-8.564,1.902-13.447c-0.957,0.195-1.68,0.146-2.168-0.146
		c-0.391-0.254-0.225-0.605,0.498-1.055c0.469-0.313,0.928-0.547,1.377-0.703c0.1-0.02,0.342-0.098,0.732-0.234
		c0.605-2.949,1.504-6.953,2.695-12.012c1.367-5.801,2.295-9.795,2.783-11.981c0.059-0.254,0.488-0.566,1.289-0.938
		c0.723-0.332,1.514-0.576,2.373-0.731c1.816-0.332,2.646-0.146,2.49,0.557c-0.469,2.228-1.367,6.113-2.695,11.66
		c-1.172,4.94-2.051,8.838-2.637,11.689c1.934-0.43,3.828-0.762,5.684-0.996c0.566-2.461,1.494-6.113,2.783-10.958
		c1.289-4.844,2.217-8.485,2.783-10.928c0.059-0.254,0.488-0.565,1.289-0.938C349.533,12.091,350.334,11.847,351.213,11.691z"/>
	<path fill="#E884B6" d="M372.922,26.896c-0.1,2.5-0.676,5.049-1.73,7.647c-1.758,7.246-2.754,12.645-2.988,16.201
		c-0.059,0.84-1.121,1.455-3.191,1.846c-0.801,0.156-1.504,0.225-2.109,0.205c-0.645-0.039-0.957-0.156-0.938-0.354
		c0.098-1.443,0.264-2.969,0.498-4.568c-0.781,0.818-1.555,1.494-2.314,2.02c-1.348,0.939-2.822,1.523-4.424,1.758
		c-1.719,0.234-2.9,0.139-3.545-0.293c-1.387-0.896-2.119-2.764-2.197-5.596c-0.176-4.844,1.084-9.766,3.779-14.766
		c1.68-3.065,4.551-5.409,8.611-7.03c2.949-1.191,5.256-1.427,6.914-0.703c1.057,0.469,1.611,1.562,1.67,3.28
		C372.268,26.388,372.922,26.505,372.922,26.896z M359.563,44.709c2.617-3.535,4.453-6.572,5.508-9.111
		c0.625-2.579,1.094-4.639,1.406-6.182c-1.211,0.098-1.807-0.01-1.787-0.322c0.098-1.777-0.146-2.91-0.732-3.398l-0.029,0.029
		c-0.215,0.137-0.381,0.244-0.498,0.322c-0.078,0.059-0.137,0.098-0.176,0.117c-0.02,0.02-0.039,0.039-0.059,0.059
		c-0.684,0.527-1.26,1.025-1.729,1.494c-0.488,0.488-0.918,1.055-1.289,1.699c-0.566,1.035-1.064,2.061-1.494,3.076
		c-1.152,2.793-1.896,5.352-2.229,7.676c-0.43,2.969-0.33,5.332,0.295,7.09c0.098,0.234,0.203,0.479,0.32,0.732
		c0.354-0.41,0.527-0.615,0.527-0.615S358.254,46.486,359.563,44.709z"/>
	<path fill="#E884B6" d="M377.082,25.05c0.039-0.254,0.459-0.566,1.26-0.938c0.723-0.332,1.523-0.576,2.402-0.732
		c1.777-0.332,2.607-0.146,2.49,0.557c-0.801,4.395-1.836,8.984-3.105,13.77c-0.625,2.285-1.27,4.551-1.934,6.797
		c-0.938,3.125-1.328,5.078-1.172,5.859c0.137,0.723-0.84,1.348-2.93,1.875c-2.07,0.527-3.174,0.459-3.313-0.205
		c-0.176-0.859,0.244-2.998,1.262-6.416c0.74-2.5,1.387-4.766,1.934-6.797C375.266,33.937,376.301,29.347,377.082,25.05z
		 M376.35,16.496c-0.391-0.254-0.234-0.605,0.469-1.056c0.43-0.272,0.898-0.497,1.406-0.674c0.82-0.293,1.631-0.479,2.432-0.558
		c0.762-0.059,1.289,0,1.582,0.177c0.84,0.565,1.553,1.144,2.139,1.729c0.527,0.526-0.098,1.104-1.875,1.729
		c-0.82,0.293-1.631,0.479-2.432,0.557c-0.859,0.078-1.387,0.021-1.582-0.176C377.902,17.638,377.189,17.062,376.35,16.496z"/>
	<path fill="#E884B6" d="M400.285,25.49c1.25,0.742,1.738,2.08,1.465,4.015c-0.273,1.836-0.898,3.682-1.875,5.537
		c-0.977,1.855-1.914,3.174-2.813,3.955c-0.957,0.82-2.363,1.318-4.219,1.494c-0.488,0.039-0.928,0-1.318-0.117
		c-0.564-0.176-0.615-0.469-0.145-0.879c0.684-0.586,1.416-1.631,2.195-3.135c0.957-1.797,1.563-3.409,1.816-4.834
		c0.176-0.918,0.205-1.699,0.088-2.344c-2.771,3.281-4.893,7.11-6.355,11.485c-0.898,5.156-1.555,8.484-1.965,9.99
		c-0.193,0.662-1.299,1.189-3.311,1.582c-1.992,0.391-2.969,0.33-2.93-0.178l0.029-0.293c0.313-3.672,0.986-7.068,2.021-10.193
		c0.271-1.563,0.547-2.91,0.82-4.043c1.602-6.524,2.322-10.499,2.168-11.925c-0.078-0.762,0.928-1.387,3.018-1.875
		c0.84-0.194,1.572-0.282,2.197-0.264c0.664,0.039,1.016,0.194,1.055,0.469c0.117,1.035,0.098,2.158-0.059,3.369l0.027-0.029
		l0.029-0.028c1.172-0.898,2.461-1.515,3.867-1.847c1.914-0.448,2.871-0.674,2.871-0.674S399.406,24.982,400.285,25.49z"/>
	<path fill="#BED747" d="M399.197,54.146c-0.346-0.799,0.973-1.6,3.957-2.398c2.691-0.719,4.223-0.68,4.596,0.121
		c0.107,0.293,1.092,2.264,2.959,5.914c0.213,0.453-0.32,0.973-1.6,1.559c-0.746,0.346-1.533,0.627-2.357,0.84
		c-2.666,0.719-4.197,0.678-4.598-0.121C400.316,56.412,399.33,54.439,399.197,54.146z M411.268,3.505
		c0.107-1.119,1.572-1.945,4.396-2.478c1.094-0.213,2.053-0.293,2.879-0.24c0.879,0.027,1.305,0.173,1.277,0.44
		c-0.506,5.889-1.879,13.351-4.117,22.384c-0.266,1.092-0.732,2.997-1.398,5.715c-0.613,2.426-1.092,4.33-1.439,5.717
		c-1.492,6.129-2.332,9.418-2.518,9.871c-0.453,0.986-2.131,1.746-5.035,2.279c-0.719,0.133-1.412,0.186-2.078,0.158
		c-1.119-0.025-1.559-0.332-1.32-0.918c-0.078,0.188,0.773-3.092,2.559-9.832c0.4-1.572,1.307-5.209,2.719-10.913
		C409.455,16.521,410.814,9.127,411.268,3.505z"/>
	<g>
		<path fill="#FFFFFF" d="M424.309,1.3h-1.379V0.369h3.811V1.3h-1.381v3.693h-1.051V1.3z M427.717,0.369h1.111l1.215,1.951
			l1.217-1.951h1.08v4.623h-0.992V1.869l-1.275,2.026h-0.09l-1.275-2.026v3.123h-0.992V0.369H427.717z"/>
	</g>
</g>
</svg>
